<?xml version="1.0" encoding="utf-8"?>
<!-- Generator: Adobe Illustrator 26.0.1, SVG Export Plug-In . SVG Version: 6.00 Build 0)  -->
<svg version="1.1" id="Layer_1" xmlns="http://www.w3.org/2000/svg" xmlns:xlink="http://www.w3.org/1999/xlink" x="0px" y="0px"
	 viewBox="0 0 512 512" style="enable-background:new 0 0 512 512;" xml:space="preserve">
<style type="text/css">
	.st0{fill:#FFFFFF;stroke:#000000;stroke-miterlimit:10;}
</style>
<path class="st0" d="M512,224c0-35.3-28.7-64-64-64H64c-35.3,0-64,28.7-64,64v224c0,35.3,28.7,64,64,64h384c35.3,0,64-28.7,64-64
	V224z M440,80H72c-13.3,0-24,10.7-24,24s10.7,24,24,24h368c13.3,0,24-10.7,24-24S453.3,80,440,80z M392,0H120c-13.3,0-24,10.7-24,24
	s10.7,24,24,24h272c13.3,0,24-10.7,24-24S405.3,0,392,0z"/>
</svg>
